<svg width="34" height="34" viewBox="0 0 34 34" fill="none" xmlns="http://www.w3.org/2000/svg">
<rect x="0.369629" y="0.369629" width="32.53" height="32.53" rx="16.265" fill="url(#paint0_linear_203_8683)"/>
<rect x="0.369629" y="0.369629" width="32.53" height="32.53" rx="16.265" stroke="#162635" stroke-width="0.739318"/>
<path d="M8.00928 22.6723L13.972 18.6102C16.1505 17.126 17.1188 17.126 19.2973 18.6102L25.26 22.6723" stroke="#B0B5C4" stroke-width="0.73747" stroke-linejoin="round"/>
<path d="M8.02301 18.8344C8.07988 21.4507 8.10833 22.7588 9.08409 23.7276C10.0599 24.6964 11.4179 24.73 14.1339 24.7972C15.806 24.8385 17.4633 24.8385 19.1354 24.7972C21.8515 24.73 23.2094 24.6964 24.1852 23.7276C25.161 22.7588 25.1894 21.4507 25.2463 18.8344C25.2742 17.5526 25.2596 16.2833 25.2026 14.9884C25.1672 14.1841 25.1495 13.782 24.9455 13.4253C24.7416 13.0686 24.39 12.8383 23.6868 12.3779L20.4429 10.2537C18.5962 9.04455 17.673 8.43994 16.6347 8.43994C15.5963 8.43994 14.673 9.04454 12.8264 10.2537L9.58252 12.3779C8.87931 12.8383 8.52771 13.0686 8.32375 13.4253C8.11978 13.782 8.10208 14.1841 8.06669 14.9884C8.0097 16.2833 7.99514 17.5526 8.02301 18.8344Z" stroke="#B0B5C4" stroke-width="0.73747" stroke-linejoin="round"/>
<path d="M25.26 14.4783L21.581 17.1583C20.6889 17.8082 19.9558 18.3597 18.791 18.3597M8.00928 14.4783L11.6883 17.1583C12.5803 17.8082 13.3135 18.3597 14.4783 18.3597" stroke="#B0B5C4" stroke-width="0.73747" stroke-linejoin="round"/>
<path d="M25.0441 19.8692V18.5754C25.0441 18.4038 24.8024 18.2393 24.3723 18.1179C23.9422 17.9966 23.3588 17.9285 22.7505 17.9285H10.5182C9.90988 17.9285 9.32651 17.9966 8.89638 18.1179C8.46625 18.2393 8.22461 18.4038 8.22461 18.5754V23.7506C8.22461 23.9222 8.46625 24.0867 8.89638 24.208C9.32651 24.3293 9.90988 24.3975 10.5182 24.3975H22.7505C23.3588 24.3975 23.9422 24.3293 24.3723 24.208C24.8024 24.0867 25.0441 23.9222 25.0441 23.7506V22.2412" fill="url(#paint1_linear_203_8683)" fill-opacity="0.24"/>
<defs>
<linearGradient id="paint0_linear_203_8683" x1="-0.0369957" y1="1.99613" x2="33.7129" y2="32.8996" gradientUnits="userSpaceOnUse">
<stop stop-color="#172736"/>
<stop offset="1" stop-color="#03070C"/>
</linearGradient>
<linearGradient id="paint1_linear_203_8683" x1="16.6344" y1="17.9285" x2="16.6344" y2="24.3975" gradientUnits="userSpaceOnUse">
<stop stop-color="white" stop-opacity="0"/>
<stop offset="1" stop-color="white"/>
</linearGradient>
</defs>
</svg>
