<svg width="34" height="34" viewBox="0 0 34 34" fill="none" xmlns="http://www.w3.org/2000/svg">
<rect x="0.369629" y="0.369629" width="32.53" height="32.53" rx="16.265" fill="url(#paint0_linear_203_8676)"/>
<rect x="0.369629" y="0.369629" width="32.53" height="32.53" rx="16.265" stroke="#162635" stroke-width="0.739318"/>
<path d="M14.7086 22.5422L16.6345 18.3601L18.5604 22.5422C19.1189 23.7552 19.3982 24.3616 19.1024 24.7995C19.0943 24.8115 19.0859 24.8233 19.0773 24.8349C18.7614 25.2604 18.0524 25.2604 16.6345 25.2604C15.2166 25.2604 14.5075 25.2604 14.1917 24.8349C14.1831 24.8233 14.1747 24.8115 14.1666 24.7995C13.8708 24.3616 14.1501 23.7552 14.7086 22.5422Z" stroke="#B0B5C4" stroke-width="0.73747" stroke-linecap="round" stroke-linejoin="round"/>
<path d="M16.6343 18.3596C17.587 18.3596 18.3593 17.5872 18.3593 16.6345C18.3593 15.6818 17.587 14.9094 16.6343 14.9094C15.6815 14.9094 14.9092 15.6818 14.9092 16.6345C14.9092 17.5872 15.6815 18.3596 16.6343 18.3596Z" stroke="#B0B5C4" stroke-width="0.73747" stroke-linecap="round" stroke-linejoin="round"/>
<path d="M9.73386 21.8105C8.65067 20.3688 8.00879 18.5765 8.00879 16.6344C8.00879 11.8707 11.8705 8.00903 16.6342 8.00903C21.3978 8.00903 25.2595 11.8707 25.2595 16.6344C25.2595 18.5765 24.6176 20.3688 23.5345 21.8105" stroke="#B0B5C4" stroke-width="0.73747" stroke-linecap="round" stroke-linejoin="round"/>
<path d="M12.7768 20.0846C11.9573 19.169 11.459 17.9599 11.459 16.6345C11.459 13.7763 13.776 11.4592 16.6342 11.4592C19.4924 11.4592 21.8094 13.7763 21.8094 16.6345C21.8094 17.9599 21.3112 19.169 20.4917 20.0846" stroke="#B0B5C4" stroke-width="0.73747" stroke-linecap="round" stroke-linejoin="round"/>
<path d="M17.7628 21.0291L17.3502 20.0587C17.3502 19.8871 17.3871 19.667 17.2812 19.5457C17.1753 19.4244 16.6187 18.7649 16.469 18.7649L16.1455 19.4118C15.9958 19.4118 16.2514 19.9374 16.1455 20.0587C16.0396 20.18 15.8221 20.2106 15.8221 20.3822L13.8813 24.2636C13.8813 24.4351 14.9759 25.2466 15.0818 25.3679C15.1876 25.4892 15.3489 25.3679 15.4986 25.3679L18.4097 25.2339C18.5594 25.2339 18.6272 25.0318 18.7331 24.9105C18.839 24.7892 19.0566 25.082 19.0566 24.9105V23.401" fill="url(#paint1_linear_203_8676)" fill-opacity="0.24"/>
<defs>
<linearGradient id="paint0_linear_203_8676" x1="-0.0369957" y1="1.99613" x2="33.7129" y2="32.8996" gradientUnits="userSpaceOnUse">
<stop stop-color="#172736"/>
<stop offset="1" stop-color="#03070C"/>
</linearGradient>
<linearGradient id="paint1_linear_203_8676" x1="17.1518" y1="19.2223" x2="17.1518" y2="25.6913" gradientUnits="userSpaceOnUse">
<stop stop-color="white" stop-opacity="0"/>
<stop offset="1" stop-color="white"/>
</linearGradient>
</defs>
</svg>
