<svg width="34" height="34" viewBox="0 0 34 34" fill="none" xmlns="http://www.w3.org/2000/svg">
<rect x="0.369629" y="0.369629" width="32.53" height="32.53" rx="16.265" fill="url(#paint0_linear_203_8661)"/>
<rect x="0.369629" y="0.369629" width="32.53" height="32.53" rx="16.265" stroke="#162635" stroke-width="0.739318"/>
<path d="M14.9769 25.2603C11.0014 24.4513 8.00977 20.9362 8.00977 16.7225C8.00977 11.9104 11.9113 8.00952 16.7241 8.00952C20.9339 8.00952 24.4465 10.9943 25.2605 14.9627" stroke="#B0B5C4" stroke-width="0.73747" stroke-linecap="round"/>
<path d="M22.1834 18.2289C22.4726 17.9155 22.6173 17.7588 22.7709 17.6674C23.1417 17.4469 23.5983 17.4401 23.9753 17.6493C24.1315 17.7361 24.2806 17.8883 24.5788 18.1929C24.8768 18.4975 25.0259 18.6497 25.1109 18.8094C25.3157 19.1945 25.309 19.6608 25.0931 20.0397C25.0036 20.1967 24.8503 20.3444 24.5435 20.6398L20.8936 24.1554C20.3122 24.7153 20.0215 24.9952 19.6582 25.1371C19.295 25.279 18.8956 25.2686 18.0969 25.2477L17.9882 25.2448C17.745 25.2385 17.6235 25.2353 17.5528 25.1551C17.4821 25.0749 17.4918 24.9511 17.511 24.7033L17.5216 24.5689C17.5759 23.8718 17.603 23.5231 17.7392 23.2098C17.8753 22.8965 18.1101 22.642 18.5797 22.1332L22.1834 18.2289Z" stroke="#B0B5C4" stroke-width="0.73747" stroke-linecap="round"/>
<path d="M23.535 11.2C22.7288 11.2581 21.6962 11.5703 20.9801 12.4971C19.6868 14.1712 18.3935 14.3108 17.5313 13.7528C16.2379 12.9158 17.3248 11.56 15.8068 10.8232C14.8175 10.343 14.6795 9.03633 15.2302 8.00952" stroke="#B0B5C4" stroke-width="0.73747" stroke-linecap="round"/>
<path d="M8.00977 15.772C8.66745 16.3431 9.58861 16.8658 10.6739 16.8658C12.9163 16.8658 13.3647 17.2943 13.3647 19.008C13.3647 20.7217 13.3647 20.7217 13.8132 22.0071C14.1049 22.8431 14.2069 23.6792 13.6254 24.3974" stroke="#B0B5C4" stroke-width="0.73747" stroke-linecap="round"/>
<path d="M18.8988 13.7238C20.516 12.4302 24.074 11.7833 22.1333 9.84246C22.1333 7.87744 17.9527 8.22527 15.9877 8.22527C15.0174 6.93153 15.3408 9.19556 15.6642 11.1362C17.2816 11.7829 16.9338 13.7238 18.8988 13.7238Z" fill="url(#paint1_linear_203_8661)" fill-opacity="0.24"/>
<defs>
<linearGradient id="paint0_linear_203_8661" x1="-0.0369957" y1="1.99613" x2="33.7129" y2="32.8996" gradientUnits="userSpaceOnUse">
<stop stop-color="#172736"/>
<stop offset="1" stop-color="#03070C"/>
</linearGradient>
<linearGradient id="paint1_linear_203_8661" x1="18.8988" y1="7.57845" x2="18.8988" y2="14.6944" gradientUnits="userSpaceOnUse">
<stop stop-color="white" stop-opacity="0"/>
<stop offset="1" stop-color="white"/>
</linearGradient>
</defs>
</svg>
