<svg width="34" height="34" viewBox="0 0 34 34" fill="none" xmlns="http://www.w3.org/2000/svg">
<rect x="0.369629" y="0.369629" width="32.53" height="32.53" rx="16.265" fill="url(#paint0_linear_203_8648)"/>
<rect x="0.369629" y="0.369629" width="32.53" height="32.53" rx="16.265" stroke="#162635" stroke-width="0.739318"/>
<path d="M18.3597 25.2603V13.1847C18.3597 10.7451 18.3597 9.52531 17.6018 8.76742C16.8439 8.00952 15.6241 8.00952 13.1845 8.00952C10.7449 8.00952 9.52507 8.00952 8.76717 8.76742C8.00928 9.52531 8.00928 10.7451 8.00928 13.1847V20.085C8.00928 22.5247 8.00928 23.7445 8.76717 24.5024C9.52507 25.2603 10.7449 25.2603 13.1845 25.2603H18.3597Z" stroke="#B0B5C4" stroke-width="0.73747" stroke-linecap="round"/>
<path d="M11.8904 15.7727H11.0278M15.3405 15.7727H14.478M11.8904 12.3225H11.0278M11.8904 19.2228H11.0278M15.3405 12.3225H14.478M15.3405 19.2228H14.478" stroke="#B0B5C4" stroke-width="0.73747" stroke-linecap="round"/>
<path d="M22.241 19.2221H21.3784M22.241 15.772H21.3784" stroke="#B0B5C4" stroke-width="0.73747" stroke-linecap="round"/>
<path d="M21.8095 13.1846H18.3594V25.2601H21.8095C23.4359 25.2601 24.2491 25.2601 24.7544 24.7548C25.2597 24.2495 25.2597 23.4363 25.2597 21.8099V16.6347C25.2597 15.0083 25.2597 14.1951 24.7544 13.6898C24.2491 13.1846 23.4359 13.1846 21.8095 13.1846Z" stroke="#B0B5C4" stroke-width="0.73747" stroke-linecap="round"/>
<path d="M18.5751 13.2712V9.90729C18.5751 9.46121 18.4263 9.0334 18.1617 8.71797C17.897 8.40255 17.5379 8.22534 17.1636 8.22534H9.63603C9.2617 8.22534 8.9027 8.40255 8.63801 8.71797C8.37331 9.0334 8.22461 9.46121 8.22461 9.90729V23.3629C8.22461 23.8089 8.37331 24.2368 8.63801 24.5522C8.9027 24.8676 9.2617 25.0448 9.63603 25.0448H17.1636C17.5379 25.0448 17.897 24.8676 18.1617 24.5522C18.4263 24.2368 18.5751 23.8089 18.5751 23.3629V19.4383" fill="url(#paint1_linear_203_8648)" fill-opacity="0.24"/>
<defs>
<linearGradient id="paint0_linear_203_8648" x1="-0.0369957" y1="1.99613" x2="33.7129" y2="32.8996" gradientUnits="userSpaceOnUse">
<stop stop-color="#172736"/>
<stop offset="1" stop-color="#03070C"/>
</linearGradient>
<linearGradient id="paint1_linear_203_8648" x1="13.3998" y1="8.22534" x2="13.3998" y2="25.0448" gradientUnits="userSpaceOnUse">
<stop stop-color="white" stop-opacity="0"/>
<stop offset="1" stop-color="white"/>
</linearGradient>
</defs>
</svg>
