<svg width="34" height="34" viewBox="0 0 34 34" fill="none" xmlns="http://www.w3.org/2000/svg">
<rect x="0.369629" y="0.369629" width="32.53" height="32.53" rx="16.265" fill="url(#paint0_linear_203_8668)"/>
<rect x="0.369629" y="0.369629" width="32.53" height="32.53" rx="16.265" stroke="#162635" stroke-width="0.739318"/>
<path d="M16.7429 11.2435H16.6351M16.8507 11.2435C16.8507 11.3626 16.7542 11.4591 16.6351 11.4591C16.516 11.4591 16.4194 11.3626 16.4194 11.2435C16.4194 11.1244 16.516 11.0278 16.6351 11.0278C16.7542 11.0278 16.8507 11.1244 16.8507 11.2435Z" stroke="#B0B5C4" stroke-width="0.73747" stroke-linecap="round" stroke-linejoin="round"/>
<path d="M10.5972 14.0466V22.672M14.0473 14.0466V22.672" stroke="#B0B5C4" stroke-width="0.73747" stroke-linecap="round" stroke-linejoin="round"/>
<path d="M19.2227 14.0466V22.672M22.6728 14.0466V22.672" stroke="#B0B5C4" stroke-width="0.73747" stroke-linecap="round" stroke-linejoin="round"/>
<path d="M24.7009 14.0468H8.56839C8.2596 14.0468 8.00928 13.7937 8.00928 13.4814C8.00928 13.29 8.10501 13.1116 8.26368 13.0073L13.8142 9.35878C15.1831 8.45895 15.8676 8.00903 16.6347 8.00903C17.4017 8.00903 18.0862 8.45895 19.4551 9.35878L25.0057 13.0073C25.1643 13.1116 25.26 13.29 25.26 13.4814C25.26 13.7937 25.0097 14.0468 24.7009 14.0468Z" stroke="#B0B5C4" stroke-width="0.73747" stroke-linecap="round" stroke-linejoin="round"/>
<path d="M24.4317 23.7875L23.8385 23.1776C23.5959 22.9284 23.4747 22.8036 23.3205 22.738C23.1663 22.6724 22.9948 22.6724 22.6519 22.6724H10.6174C10.2745 22.6724 10.103 22.6724 9.94881 22.738C9.79462 22.8036 9.67336 22.9284 9.43086 23.1776L8.83757 23.7875C8.22798 24.4142 7.9232 24.7275 8.03046 24.9937C8.13774 25.26 8.56878 25.26 9.43086 25.26H23.8385C24.7005 25.26 25.1316 25.26 25.2388 24.9937C25.3461 24.7275 25.0413 24.4142 24.4317 23.7875Z" stroke="#B0B5C4" stroke-width="0.73747" stroke-linecap="round" stroke-linejoin="round"/>
<path d="M23.1036 16.5696V14.8876C23.1036 14.6646 22.9177 14.4507 22.5868 14.2929C22.256 14.1352 21.8072 14.0466 21.3393 14.0466H11.9298C11.4619 14.0466 11.0131 14.1352 10.6823 14.2929C10.3514 14.4507 10.1655 14.6646 10.1655 14.8876V21.6154C10.1655 21.8384 10.3514 22.0523 10.6823 22.2101C11.0131 22.3678 11.4619 22.4564 11.9298 22.4564H21.3393C21.8072 22.4564 22.256 22.3678 22.5868 22.2101C22.9177 22.0523 23.1036 21.8384 23.1036 21.6154V19.6531" fill="url(#paint1_linear_203_8668)" fill-opacity="0.24"/>
<defs>
<linearGradient id="paint0_linear_203_8668" x1="-0.0369957" y1="1.99613" x2="33.7129" y2="32.8996" gradientUnits="userSpaceOnUse">
<stop stop-color="#172736"/>
<stop offset="1" stop-color="#03070C"/>
</linearGradient>
<linearGradient id="paint1_linear_203_8668" x1="16.6346" y1="14.0466" x2="16.6346" y2="22.4564" gradientUnits="userSpaceOnUse">
<stop stop-color="white" stop-opacity="0"/>
<stop offset="1" stop-color="white"/>
</linearGradient>
</defs>
</svg>
