<svg width="34" height="34" viewBox="0 0 34 34" fill="none" xmlns="http://www.w3.org/2000/svg">
<rect x="0.369629" y="0.369629" width="32.53" height="32.53" rx="16.265" fill="url(#paint0_linear_203_8655)"/>
<rect x="0.369629" y="0.369629" width="32.53" height="32.53" rx="16.265" stroke="#162635" stroke-width="0.739318"/>
<path d="M25.0443 10.1656V8.87176C25.0443 8.70019 24.9606 8.53565 24.8118 8.41433C24.6629 8.29301 24.4609 8.22485 24.2504 8.22485H20.0161C19.8055 8.22485 19.6036 8.29301 19.4547 8.41433C19.3058 8.53565 19.2222 8.70019 19.2222 8.87176L19.5456 12.7532C19.5456 12.9247 21.6609 14.5726 21.8098 14.6939C23.1945 14.2365 21.9227 14.6939 22.1332 14.6939L23.427 14.5044C23.6376 14.5044 24.2485 13.5214 24.3974 13.4001C24.5463 13.2788 25.0443 12.9247 25.0443 12.7532V12.5375" fill="url(#paint1_linear_203_8655)" fill-opacity="0.24"/>
<path d="M18.3598 25.2597H20.0849M18.3598 25.2597C17.6453 25.2597 17.066 24.6804 17.066 23.9659V21.8096H16.6347M18.3598 25.2597H14.9096M16.6347 21.8096H16.2035V23.9659C16.2035 24.6804 15.6242 25.2597 14.9096 25.2597M16.6347 21.8096V25.2597M14.9096 25.2597H13.1846" stroke="#B0B5C4" stroke-width="0.73747" stroke-linecap="round" stroke-linejoin="round"/>
<path d="M15.7721 9.73413H13.1845C10.7449 9.73413 9.52507 9.73413 8.76717 10.492C8.00928 11.2499 8.00928 12.4697 8.00928 14.9094V16.6344C8.00928 19.074 8.00928 20.2938 8.76717 21.0517C9.52507 21.8097 10.7449 21.8097 13.1845 21.8097H20.0848C22.5244 21.8097 23.7442 21.8097 24.5021 21.0517C25.1649 20.389 25.2481 19.373 25.2586 17.497" stroke="#B0B5C4" stroke-width="0.73747" stroke-linecap="round" stroke-linejoin="round"/>
<path d="M25.2599 11.1318V9.43161C25.2599 9.16423 25.0635 8.94231 24.8088 8.89676C23.7823 8.71323 22.9302 8.30496 22.5145 8.07857C22.3443 7.98585 22.1378 7.98585 21.9676 8.07857C21.5519 8.30496 20.6998 8.71323 19.6733 8.89676C19.4186 8.94231 19.2222 9.16423 19.2222 9.43161V11.1318C19.2222 13.3497 21.4151 14.5595 22.0629 14.8684C22.1772 14.923 22.3049 14.923 22.4192 14.8684C23.067 14.5595 25.2599 13.3497 25.2599 11.1318Z" stroke="#B0B5C4" stroke-width="0.73747" stroke-linecap="round" stroke-linejoin="round"/>
<defs>
<linearGradient id="paint0_linear_203_8655" x1="-0.0369957" y1="1.99613" x2="33.7129" y2="32.8996" gradientUnits="userSpaceOnUse">
<stop stop-color="#172736"/>
<stop offset="1" stop-color="#03070C"/>
</linearGradient>
<linearGradient id="paint1_linear_203_8655" x1="22.1332" y1="8.22485" x2="22.1332" y2="14.6939" gradientUnits="userSpaceOnUse">
<stop stop-color="white" stop-opacity="0"/>
<stop offset="1" stop-color="white"/>
</linearGradient>
</defs>
</svg>
